<?xml version="1.0" encoding="UTF-8"?>
<svg width="24px" height="24px" viewBox="0 0 24 24" version="1.1" xmlns="http://www.w3.org/2000/svg">
    <path d="M20,4 L4,4 C2.9,4 2,4.9 2,6 L2,18 C2,19.1 2.9,20 4,20 L20,20 C21.1,20 22,19.1 22,18 L22,6 C22,4.9 21.1,4 20,4 Z M8,18 L4,18 L4,14 L8,14 L8,18 Z M8,12 L4,12 L4,8 L8,8 L8,12 Z M14,18 L10,18 L10,14 L14,14 L14,18 Z M14,12 L10,12 L10,8 L14,8 L14,12 Z M20,18 L16,18 L16,14 L20,14 L20,18 Z M20,12 L16,12 L16,8 L20,8 L20,12 Z" fill="#000000" fill-rule="nonzero"/>
</svg>
