<?xml version="1.0" encoding="UTF-8"?>
<svg width="24px" height="24px" viewBox="0 0 24 24" version="1.1" xmlns="http://www.w3.org/2000/svg">
    <path d="M19.14,12.94 C19.16,12.78 19.17,12.61 19.17,12.44 C19.17,12.26 19.16,12.09 19.14,11.93 L21.19,10.33 C21.38,10.18 21.43,9.91 21.31,9.7 L19.17,6.01 C19.05,5.8 18.8,5.71 18.57,5.8 L16.16,6.77 C15.66,6.38 15.12,6.06 14.54,5.82 L14.17,3.26 C14.14,3.02 13.93,2.83 13.68,2.83 L9.4,2.83 C9.15,2.83 8.95,3.01 8.91,3.26 L8.54,5.82 C7.96,6.06 7.42,6.38 6.92,6.77 L4.51,5.8 C4.28,5.71 4.03,5.8 3.91,6.01 L1.77,9.7 C1.65,9.92 1.7,10.19 1.89,10.33 L3.94,11.93 C3.92,12.09 3.91,12.26 3.91,12.44 C3.91,12.61 3.92,12.78 3.94,12.94 L1.89,14.53 C1.7,14.68 1.65,14.95 1.77,15.16 L3.91,18.85 C4.03,19.06 4.28,19.15 4.51,19.06 L6.92,18.09 C7.42,18.48 7.96,18.8 8.54,19.04 L8.91,21.6 C8.95,21.84 9.15,22.03 9.4,22.03 L13.68,22.03 C13.93,22.03 14.13,21.84 14.17,21.6 L14.54,19.04 C15.12,18.8 15.66,18.48 16.16,18.09 L18.57,19.06 C18.8,19.15 19.05,19.06 19.17,18.85 L21.31,15.16 C21.43,14.95 21.38,14.68 21.19,14.53 L19.14,12.94 Z M11.54,15.48 C9.86,15.48 8.5,14.12 8.5,12.44 C8.5,10.76 9.86,9.4 11.54,9.4 C13.22,9.4 14.58,10.76 14.58,12.44 C14.58,14.12 13.22,15.48 11.54,15.48 Z" fill="#000000" fill-rule="nonzero"/>
</svg>
