<?xml version="1.0" encoding="UTF-8"?>
<svg width="24px" height="24px" viewBox="0 0 24 24" version="1.1" xmlns="http://www.w3.org/2000/svg">
    <path d="M9,3 L9,5 L5,5 L5,19 L19,19 L19,15 L21,15 L21,19 C21,20.1 20.1,21 19,21 L5,21 C3.9,21 3,20.1 3,19 L3,5 C3,3.9 3.9,3 5,3 L9,3 Z M12,6 C13.66,6 15,7.34 15,9 C15,10.66 13.66,12 12,12 C10.34,12 9,10.66 9,9 C9,7.34 10.34,6 12,6 Z M12,8 C11.45,8 11,8.45 11,9 C11,9.55 11.45,10 12,10 C12.55,10 13,9.55 13,9 C13,8.45 12.55,8 12,8 Z M20,2 L20,5 L17,5 L17,2 L14,2 L14,7 L23,7 L23,2 L20,2 Z" fill="#000000" fill-rule="nonzero"/>
</svg>
